<svg width="332" height="58" xmlns="http://www.w3.org/2000/svg" xmlns:xlink="http://www.w3.org/1999/xlink"><defs><circle id="a" cx="13.027" cy="13.027" r="13.027"/></defs><g fill="none" fill-rule="evenodd"><path d="M150.004 32.885v7.952h-5.29V17.755h8.287c5.918 0 8.877 2.452 8.877 7.356 0 2.318-.85 4.193-2.547 5.626-1.698 1.432-3.966 2.148-6.805 2.148h-2.522zm.037-10.987V29h1.952c2.644 0 3.966-1.197 3.966-3.59 0-2.342-1.322-3.512-3.966-3.512h-1.952zm25.449 7.186c-.606-.329-1.313-.493-2.121-.493-1.095 0-1.951.4-2.568 1.2-.616.801-.925 1.89-.925 3.269v7.777h-5.04V24.552h5.04v3.021h.064c.797-2.205 2.233-3.308 4.306-3.308.531 0 .946.064 1.244.191v4.628zm9.98 12.345c-2.734 0-4.884-.765-6.449-2.294-1.565-1.528-2.348-3.603-2.348-6.224 0-2.706.812-4.824 2.436-6.352 1.624-1.53 3.82-2.294 6.586-2.294 2.724 0 4.861.765 6.41 2.294 1.55 1.528 2.324 3.55 2.324 6.064 0 2.717-.799 4.864-2.396 6.44-1.597 1.577-3.785 2.366-6.562 2.366zm.435-13.613c-1.236 0-2.195.412-2.88 1.236-.683.824-1.025 1.99-1.025 3.499 0 3.156 1.313 4.735 3.938 4.735 2.504 0 3.756-1.621 3.756-4.863 0-3.071-1.263-4.607-3.79-4.607z" fill="#25519D"/><path d="M97.96 40.837h-5.254v-9.4h-9.632v9.4h-5.237V17.755h5.237v9.207h9.632v-9.207h5.253v23.082zm7.101-18.939c-.867 0-1.577-.26-2.13-.779a2.517 2.517 0 01-.829-1.909c0-.776.276-1.41.83-1.901.552-.492 1.262-.738 2.13-.738.877 0 1.59.246 2.137.738.548.492.821 1.125.821 1.901 0 .787-.273 1.431-.82 1.934-.548.503-1.26.754-2.139.754zm2.96 18.939h-5.327V24.265h5.326v16.572zm20.714 0h-6.122l-5.281-8.131h-.065v8.13h-5.104V16.572h5.104v15.446h.065l4.926-7.57h6.057l-5.928 7.698 6.348 8.692zm10.653-7.102h-8.878v-3.551h8.878v3.55zm75.755 6.48c-1.662.81-3.833 1.214-6.511 1.214-3.494 0-6.242-1.033-8.243-3.097-2-2.065-3.001-4.816-3.001-8.253 0-3.661 1.125-6.63 3.374-8.908 2.25-2.277 5.17-3.416 8.759-3.416 2.223 0 4.097.282 5.622.846v4.965c-1.525-.916-3.261-1.373-5.21-1.373-2.138 0-3.864.676-5.176 2.027-1.313 1.352-1.97 3.182-1.97 5.492 0 2.213.62 3.977 1.858 5.291 1.24 1.315 2.907 1.972 5.003 1.972 2.001 0 3.833-.49 5.495-1.469v4.71zm11.756 1.214c-2.734 0-4.884-.765-6.45-2.294-1.564-1.528-2.347-3.603-2.347-6.224 0-2.706.812-4.824 2.436-6.352 1.624-1.53 3.819-2.294 6.586-2.294 2.724 0 4.86.765 6.41 2.294 1.549 1.528 2.323 3.55 2.323 6.064 0 2.717-.798 4.864-2.396 6.44-1.597 1.577-3.784 2.366-6.562 2.366zm-.157-13.613c-1.236 0-2.196.412-2.88 1.236-.683.824-1.025 1.99-1.025 3.499 0 3.156 1.312 4.735 3.938 4.735 2.504 0 3.756-1.621 3.756-4.863 0-3.071-1.263-4.607-3.79-4.607zm28.646 13.613h-5.09v-9.31c0-2.596-.915-3.894-2.747-3.894-.883 0-1.61.343-2.18 1.03-.572.688-.857 1.56-.857 2.618v9.556h-5.106V24.674h5.106v2.65h.065c1.217-2.039 2.989-3.059 5.315-3.059 3.663 0 5.494 2.302 5.494 6.905v10.259zm19.53 0h-5.09v-9.31c0-2.596-.915-3.894-2.746-3.894-.883 0-1.61.343-2.181 1.03-.571.688-.857 1.56-.857 2.618v9.556h-5.105V24.674h5.105v2.65h.065c1.217-2.039 2.99-3.059 5.316-3.059 3.662 0 5.493 2.302 5.493 6.905v10.259zm18.94-7.144h-10.882c.174 2.376 1.7 3.564 4.577 3.564 1.836 0 3.448-.426 4.838-1.279v3.644c-1.542.81-3.545 1.215-6.01 1.215-2.694 0-4.784-.733-6.272-2.198-1.488-1.465-2.231-3.508-2.231-6.128 0-2.717.803-4.87 2.41-6.457 1.608-1.587 3.584-2.38 5.93-2.38 2.432 0 4.313.708 5.644 2.125 1.33 1.417 1.995 3.34 1.995 5.769v2.125zm-4.736-2.918c0-2.367-.931-3.55-2.794-3.55-.795 0-1.483.338-2.064 1.016-.581.678-.934 1.523-1.06 2.534h5.918zm20.715 9.07c-1.16.661-2.835.992-5.026.992-2.558 0-4.63-.762-6.212-2.286-1.583-1.523-2.375-3.489-2.375-5.897 0-2.78.849-4.972 2.546-6.576 1.696-1.603 3.965-2.405 6.806-2.405 1.962 0 3.383.256 4.26.767v4.283a5.927 5.927 0 00-3.593-1.182c-1.475 0-2.643.423-3.505 1.27-.862.847-1.293 2.016-1.293 3.508 0 1.449.412 2.586 1.236 3.412.824.825 1.957 1.238 3.399 1.238 1.28 0 2.532-.394 3.757-1.182v4.059zm13.02.396c-.738.397-1.85.596-3.337.596-3.522 0-5.282-1.863-5.282-5.588V28.29h-2.626v-3.752h2.626V20.98l4.982-1.45v5.008h3.637v3.752h-3.637v6.666c0 1.717.67 2.576 2.008 2.576.527 0 1.07-.156 1.63-.467v3.768z" fill="#333"/><g><g transform="translate(8)"><path d="M58 42.82v.76C58 51.543 51.544 58 43.58 58H14.42C6.457 58 0 51.544 0 43.58v-.76h58z" fill="#25519D"/><path d="M43.58 0C51.543 0 58 6.456 58 14.42v28.4H0v-28.4C0 6.457 6.456 0 14.42 0h29.16z" fill="#CB2D32"/><path d="M21.103 54.297v-3.524h2.277c2.238 0 3.357-.952 3.357-2.843 0-1.879-1.119-2.818-3.332-2.818h-3.807v9.185h1.505zm2.187-4.81h-2.187v-3.088h2.187c.656 0 1.145.116 1.453.36.31.232.476.617.476 1.17 0 .554-.154.953-.463 1.197-.309.232-.797.36-1.466.36zm6.059 4.81v-3.524c0-.566.167-1.017.527-1.364.309-.309.656-.45 1.042-.45.309 0 .618.038.952.141v-1.466c-.231-.116-.514-.167-.836-.167-.412 0-.76.115-1.055.36-.244.18-.45.437-.63.772v-.952h-1.454v6.65h1.454zm6.445.18c1.003 0 1.826-.334 2.444-1.003.592-.643.9-1.48.9-2.496 0-1.029-.308-1.865-.913-2.52-.617-.67-1.428-.991-2.431-.991-1.017 0-1.827.321-2.432.99-.617.656-.913 1.492-.913 2.521 0 1.017.296 1.853.9 2.496.618.669 1.428 1.003 2.445 1.003zm0-1.196c-.618 0-1.08-.244-1.415-.72-.283-.412-.425-.94-.425-1.583s.142-1.183.425-1.595c.334-.489.797-.72 1.415-.72.604 0 1.08.231 1.415.72.283.412.437.952.437 1.595 0 .63-.154 1.158-.437 1.583-.335.476-.81.72-1.415.72z" fill="#FFF" fill-rule="nonzero"/><circle cx="13.027" cy="13.027" r="13.027" transform="translate(15.973 9.006)" fill="#3F413F" fill-rule="nonzero"/><g transform="translate(15.973 9.006)"><mask id="b" fill="#fff"><use xlink:href="#a"/></mask><path d="M13.027 0c7.195 0 13.028 5.833 13.028 13.027 0 7.195-5.833 13.028-13.028 13.028V0z" fill="#2B2B2B" fill-rule="nonzero" mask="url(#b)"/></g><path d="M29 38.402c-8.775 0-15.937-6.904-16.35-15.576h3.346c.41 6.826 6.076 12.235 13.004 12.235s12.594-5.41 13.004-12.235h3.346c-.413 8.672-7.575 15.576-16.35 15.576zm0-32.738c8.775 0 15.937 6.904 16.35 15.576h-3.346C41.594 14.415 35.929 9.006 29 9.006c-6.929 0-12.594 5.409-13.004 12.234H12.65C13.063 12.568 20.225 5.664 29 5.664z" fill="#FFF"/><circle fill="#FFF" fill-rule="nonzero" cx="29" cy="22.033" r="2.549"/></g></g></g></svg>